@startuml
'https://plantuml.com/class-diagram

class Juego{
    - nivelesCompletados: int
    + iniciarJuego()
    + finalizarJuego()
}
class Personaje{
    -ubicacion:Coordenada
}
interface Movible{
    'Preguntar al profe acerca de lo movible'
    +mover()
}
class Nivel {
    - nombre: String
    - frutas: ArrayList<Fruta>
    'Preguntar al profe'
    - obstaculos: ArrayList<Obstaculo>
    + cargarNivel()
    + guardarNivel()
}
class Helado {
    - puntuacion: int
    - derretido: boolean
    + aumentarPuntuacion(puntos: int)
    + mover()
    + morir()
    + destruirBloques()
    + contruirBloques()
}
class Enemigo {
}
class Obstaculo {
    -ubicacion: Coordenada
    + bloquearCamino()
}
class BloqueRompible{
    -ubicacionIndefinida: Coordenada
}
class BloqueIrrompible{
    -ubicacionPredeterminada: Coordenada

}
class Fruta {
    -ubicacion: Coordenada
    - tipo: TipoDeFruta
    + darPuntos()
}
enum TipoDeFruta{
    PLATANO
    SANDIA
    PERA
}
class Vaca {
    + movimientoAleatorio()
}
class Jarron {
    + perseguirDuranteCiertoTiempo()
}
class Jefe {
    + perseguirConstantemente()
    + aumentarVelocidad()
}
class Tronco{
    +teletransportar()
}
class Coordenada {
    - posicionX: int
    - posicionY: int
}
abstract class ObjetoJuego {
    -ubicacionInicial: Coordenada
    +colisionar()
    'Preguntar al inge'
}

ObjetoJuego <|-- Fruta
ObjetoJuego <|-- Personaje
ObjetoJuego <|-- Obstaculo
ObjetoJuego -> "*" Coordenada

Fruta<|..Movible
'Preguntar al profe'
Personaje<|..Movible
Personaje<|-- Helado
Personaje <|-- Enemigo
Enemigo <|-- Vaca
Enemigo <|-- Jarron
Enemigo <|-- Jefe
Enemigo <|-- Tronco
Juego -> "*"Nivel
Juego -> "*"ObjetoJuego

Obstaculo <|-- BloqueIrrompible
Obstaculo <|-- BloqueRompible
Fruta<-- TipoDeFruta
Nivel -> Obstaculo
Nivel -> "*"Fruta

@enduml
